<?xml version="1.0" encoding="utf-8"?>
<!-- Generator: Adobe Illustrator 24.1.0, SVG Export Plug-In . SVG Version: 6.00 Build 0)  -->
<svg version="1.1" id="Layer_1" xmlns="http://www.w3.org/2000/svg" xmlns:xlink="http://www.w3.org/1999/xlink" x="0px" y="0px"
	 viewBox="0 0 512 512" style="enable-background:new 0 0 512 512;" xml:space="preserve">
<style type="text/css">
	.st0{fill:#00BDF2;}
	.st1{fill:#2B3894;}
	.st2{fill:#232E7A;}
	.st3{fill:#008CFF;}
	.st4{fill:#4FBBFF;}
	.st5{fill:#0063F2;}
	.st6{fill:#D5F1FE;}
	.st7{fill:#E6F7FE;}
	.st8{fill:#3D4EC6;}
	.st9{fill:#3342AE;}
	.st10{fill:#FCE395;}
	.st11{fill:#FECD0A;}
</style>
<path class="st0" d="M503,306.5c2.1-12.9,3.2-26.1,3.2-39.5c0-135.3-109.7-245-245-245s-245,109.7-245,245c0,13.1,1,25.9,3,38.4
	L503,306.5z"/>
<path class="st1" d="M469.3,67.5h-69.3v393.8c0,2.8-0.4,5.6-1,8.2c54.9-37.4,93.8-96.6,104.3-165.1v-203
	C503.3,82.8,488.1,67.5,469.3,67.5z"/>
<path class="st2" d="M451.2,90.8c0-10.4,6.3-19.4,15.4-23.2h-66.5v393.8c0,2.8-0.4,5.6-1.1,8.2c19.6-13.4,37.2-29.6,52.2-48V90.8z"
	/>
<path class="st0" d="M469.3,104.4h-69.3v357c0,2.8-0.4,5.6-1.1,8.2c36.5-24.9,65.9-59.4,84.6-99.8v-251
	C483.7,110.8,477.2,104.4,469.3,104.4z"/>
<path class="st3" d="M451.2,104.4h-51.2v357c0,2.8-0.4,5.6-1.1,8.2c19.6-13.4,37.2-29.6,52.2-48V104.4z"/>
<path class="st4" d="M400.1,233.3h40.1c6.5,0,11.8-5.3,11.8-11.8v-47.8c0-6.5-5.3-11.8-11.8-11.8h-40.1V233.3z"/>
<path class="st5" d="M400.1,340.8h40.1c6.5,0,11.8-5.3,11.8-11.8v-47.8c0-6.5-5.3-11.8-11.8-11.8h-40.1V340.8z"/>
<path class="st4" d="M440.2,377h-40.1v71.4h25.9c9.4-8.5,18.1-17.8,26.1-27.7v-31.9C452,382.3,446.7,377,440.2,377z"/>
<path class="st6" d="M19.9,133.4h-1.6C11.5,133.4,6,139,6,145.7v47.5c0,6.7,5.5,12.3,12.3,12.3h1.6V133.4z"/>
<path class="st0" d="M12.7,172.1c-2.9,0-5.3-1.5-6.7-3.8v25c0,6.7,5.5,12.3,12.3,12.3h1.6v-38.2C18.7,170.1,15.9,172.1,12.7,172.1z"
	/>
<path class="st0" d="M19.9,226h-1.6C11.5,226,6,231.5,6,238.2v7.2c0,6.7,5.5,12.3,12.3,12.3h1.6V226z"/>
<path class="st7" d="M18.9,102.9v200.5c10.4,70.1,50.6,130.6,107.3,168.1V67.5h-72C34.7,67.5,18.9,83.4,18.9,102.9z"/>
<path class="st6" d="M54.4,67.5C65.5,70.7,73.7,80.9,73.7,93v331.7c15.1,18,32.8,33.8,52.5,46.8V67.5H54.4z"/>
<path class="st0" d="M111.3,108.9h14.8V93.6h-14.8c-4.2,0-7.7,3.4-7.7,7.7S107.1,108.9,111.3,108.9z"/>
<path class="st0" d="M87.3,108.9c-4.2,0-7.7-3.4-7.7-7.7c0-3.5,2.4-6.7,6.2-7.5c4.8-1,9.2,2.7,9.2,7.5
	C95,105.4,91.7,108.9,87.3,108.9z"/>
<path class="st0" d="M39.3,141V371c19.2,40.9,49.4,75.7,86.8,100.4v-339H47.9C43.1,132.4,39.3,136.3,39.3,141z"/>
<path class="st3" d="M73.7,132.4v292.2c15.1,18,32.8,33.8,52.5,46.8v-339H73.7z"/>
<path class="st4" d="M81.4,189.4c-6.7,0-12.3,5.5-12.3,12.3v49.6c0,6.7,5.5,12.3,12.3,12.3h44.8v-74.2H81.4z"/>
<path class="st5" d="M81.4,301.1c-6.7,0-12.3,5.5-12.3,12.3V363c0,6.7,5.5,12.3,12.3,12.3h44.8v-74.2H81.4z"/>
<path class="st4" d="M70.1,420.3c15.9,19.8,34.8,37.1,56.1,51.1v-58.7H81.4C76.3,412.8,72,415.9,70.1,420.3z"/>
<path class="st8" d="M371.2,0H156.1c-20.9,0-37.9,17-37.9,37.9V466c40.2,28.9,89.6,46,142.9,46c55.6,0,106.8-18.5,147.9-49.7V37.9
	C409.1,17,392.1,0,371.2,0z"/>
<path class="st9" d="M228.2,42.3c-11.4-0.9-20.4-10.5-20.4-22.1c0-9,5.3-16.7,13-20.2h-64.7c-20.9,0-37.9,17-37.9,37.9V466
	c31.8,22.9,69.3,38.3,109.9,43.8V42.3z"/>
<path class="st0" d="M371.2,21.9h-32c-3,0-5.5,2.4-5.5,5.5c0,7.2-5.9,13.1-13.1,13.1h-114c-7.2,0-13.1-5.9-13.1-13.1
	c0-3-2.4-5.5-5.5-5.5h-32c-8.8,0-15.9,7.1-15.9,15.9v442.2c35.7,20.3,77,31.9,121,31.9c46.1,0,89.2-12.7,126-34.8
	c0-156.2,0-427.4,0-439.3C387.2,29.1,380,21.9,371.2,21.9z"/>
<path class="st3" d="M220.7,40.5h-14c-7.2,0-13.1-5.9-13.1-13.1c0-3-2.4-5.5-5.5-5.5h-32c-8.8,0-15.9,7.1-15.9,15.9v442.2
	c24.5,14,51.7,23.8,80.6,28.6V40.5z"/>
<path class="st4" d="M345.1,191.1H182.3c-7,0-12.7-5.7-12.7-12.7v-51.5c0-7,5.7-12.7,12.7-12.7h162.8c7,0,12.7,5.7,12.7,12.7v51.5
	C357.8,185.4,352.1,191.1,345.1,191.1z"/>
<path class="st3" d="M345.1,307H182.3c-7,0-12.7-5.7-12.7-12.7v-51.5c0-7,5.7-12.7,12.7-12.7h162.8c7,0,12.7,5.7,12.7,12.7v51.5
	C357.8,301.3,352.1,307,345.1,307z"/>
<path class="st4" d="M345.1,422.9H182.3c-7,0-12.7-5.7-12.7-12.7v-51.5c0-7,5.7-12.7,12.7-12.7h162.8c7,0,12.7,5.7,12.7,12.7v51.5
	C357.8,417.1,352.1,422.9,345.1,422.9z"/>
<path class="st0" d="M210.8,178.4v-51.5c0-7,5.7-12.7,12.7-12.7h-41.2c-7,0-12.7,5.7-12.7,12.7v51.5c0,7,5.7,12.7,12.7,12.7h41.2
	C216.5,191.1,210.8,185.4,210.8,178.4z"/>
<path class="st5" d="M210.8,294.3v-51.5c0-7,5.7-12.7,12.7-12.7h-41.2c-7,0-12.7,5.7-12.7,12.7v51.5c0,7,5.7,12.7,12.7,12.7h41.2
	C216.5,307,210.8,301.3,210.8,294.3z"/>
<path class="st0" d="M210.8,410.1v-51.5c0-7,5.7-12.7,12.7-12.7h-41.2c-7,0-12.7,5.7-12.7,12.7v51.5c0,7,5.7,12.7,12.7,12.7h41.2
	C216.5,422.9,210.8,417.1,210.8,410.1z"/>
<path class="st10" d="M350.4,90.6H320c-4.4,0-8-3.6-8-8c0-4.4,3.6-8,8-8h30.4c4.4,0,8,3.6,8,8C358.4,87.1,354.8,90.6,350.4,90.6z"/>
<path class="st11" d="M335.6,82.7c0-4.4,3.6-8,8-8H320c-4.4,0-8,3.6-8,8c0,4.4,3.6,8,8,8h23.5C339.1,90.6,335.6,87.1,335.6,82.7z"/>
<path class="st7" d="M231.3,469.5c-5.7,0-10.6-4.6-10.6-10.6c0-6.7,6.2-11.7,12.7-10.4c5,1,8.5,5.4,8.5,10.4
	C241.9,464.8,237.1,469.5,231.3,469.5z"/>
<g>
	<path class="st4" d="M263.7,466.8c-4.4,0-8-3.6-8-8c0-3.6,2.5-7,6.4-7.8c5-1,9.5,2.9,9.5,7.8C271.6,463.2,268.1,466.8,263.7,466.8z
		"/>
	<path class="st4" d="M296,466.8c-4.5,0-7.9-3.7-7.9-8c0-5,4.6-8.8,9.5-7.8c3.8,0.8,6.4,4.1,6.4,7.8
		C304,463.3,300.4,466.8,296,466.8z"/>
</g>
</svg>
