<?xml version="1.0" encoding="utf-8"?>
<!-- Generator: Adobe Illustrator 24.1.0, SVG Export Plug-In . SVG Version: 6.00 Build 0)  -->
<svg version="1.1" id="Layer_1" xmlns="http://www.w3.org/2000/svg" xmlns:xlink="http://www.w3.org/1999/xlink" x="0px" y="0px"
	 viewBox="0 0 512 512" style="enable-background:new 0 0 512 512;" xml:space="preserve">
<style type="text/css">
	.st0{fill:#00BDF2;}
	.st1{fill:#0081F2;}
	.st2{fill:#FDED32;}
	.st3{fill:#FDF385;}
	.st4{fill:#FDF7BD;}
	.st5{fill:#E8CE00;}
	.st6{fill:#88B9D3;}
	.st7{fill:#B3D1E1;}
	.st8{fill:#ADE8F0;}
	.st9{fill:#D3F1F5;}
	.st10{fill:#3691BB;}
	.st11{fill:#6CAAC9;}
</style>
<path class="st0" d="M392.5,469.3c0,2.1-1.1,4-2.8,5.1c-39.4,24.2-85.9,38-135.7,37.6C112.9,510.9,0,397,0,256
	C0,114.6,114.6,0,256,0c140.4,0,254,111.9,256,252.3c0.7,49.7-12.8,96.2-36.6,135.8c-0.7,1.2-2,1.9-3.4,1.9h-0.1
	C428,390,392.5,425.5,392.5,469.3z"/>
<path class="st1" d="M396,154v236c0,5.5-4.5,10-10,10s-10-4.5-10-10V154c0-29.8-24.2-54-54-54s-54,24.2-54,54v212
	c0,40.8-33.2,74-74,74s-74-33.2-74-74V180c0-5.5,4.5-10,10-10s10,4.5,10,10v186c0,29.8,24.2,54,54,54s54-24.2,54-54V154
	c0-40.8,33.2-74,74-74S396,113.2,396,154z"/>
<path class="st2" d="M196.2,204.5c-18,16-28,39.1-28,63.1v1.6H91.8v-1.9c0-24.3-10.6-47.1-28.6-63.4c-20.3-18.3-33-44.9-32.9-74.4
	c0.2-55,44.7-99.3,99.7-99.3c55.1,0,99.7,44.6,99.7,99.7C229.7,159.7,216.8,186.3,196.2,204.5z"/>
<path class="st3" d="M168.2,267.7v1.6h-50.5v-1.9c0-24.3-10.6-47.1-28.6-63.4c-20.3-18.3-33-44.9-32.9-74.4
	C56.4,79,94.1,37.5,143,31.1c48.9,6.4,86.7,48.2,86.7,98.9c0,29.7-12.9,56.3-33.5,74.5C178.2,220.5,168.2,243.6,168.2,267.7z"/>
<path class="st4" d="M153,54.2c3.7-4.9,27.3,2.7,41.9,19.1c12.5,14.1,18.3,34.5,13.7,37.8c-5.7,4.1-27.4-17.7-31.9-22.3
	C173.9,86.1,148.4,60.2,153,54.2z"/>
<path class="st5" d="M155.2,121.6h-50.4c-15.4,0-28,12.6-28,28c0,12.4,10,22.4,22.4,22.4c3.1,0,5.6,2.5,5.6,5.6v72.8
	c0,12.3,10,22.4,22.4,22.4h5.6c12.4,0,22.4-10.1,22.4-22.4v-72.8c0-3.1,2.5-5.6,5.6-5.6c12.4,0,22.4-10,22.4-22.4
	C183.2,134.1,170.6,121.6,155.2,121.6z M160.8,155.2c-12.4,0-22.4,10.1-22.4,22.4v72.8c0,3.1-2.5,5.6-5.6,5.6h-5.6
	c-3.1,0-5.6-2.5-5.6-5.6v-72.8c0-12.4-10.1-22.4-22.4-22.4c-3.1,0-5.6-2.5-5.6-5.6c0-6.2,5-11.2,11.2-11.2h50.4
	c6.2,0,11.2,5,11.2,11.2C166.4,152.7,163.9,155.2,160.8,155.2z"/>
<path class="st6" d="M181.2,262.5c0,6.1-4,11.3-9.6,13v0.6c0,18.9-15.3,34.1-34.1,34.1h-15c-18.9,0-34.1-15.3-34.1-34.1v-0.6
	c-5.5-1.7-9.6-6.9-9.6-13c0-7.5,6.1-13.7,13.7-13.7h75.1C175.1,248.8,181.2,254.9,181.2,262.5z"/>
<path class="st7" d="M181.2,262.5c0,6.1-4,11.3-9.6,13v0.6c0,16.4-11.6,30.1-27,33.4c-10.3-2.2-18.8-9-23.4-18.2c-1.1-2.3,0.5-5,3-5
	h30.6c2.9,0,5.2-2.4,5.1-5.3c-0.1-2.8-2.5-5-5.3-5h-42.5c-7.5,0-13.7-6.1-13.7-13.7s6.1-13.7,13.7-13.7h55.3
	C175.1,248.8,181.2,254.9,181.2,262.5z"/>
<path class="st8" d="M388.6,475H355c-33.1,0-60-26.9-60-60V265c0-33.1,26.9-60,60-60h60c33.1,0,60,26.9,60,60v123.6
	C453.6,423.9,423.9,453.6,388.6,475z"/>
<path class="st9" d="M475,265v123.6c-21.4,35.3-51.1,65-86.4,86.4H379c-33.1,0-60-26.9-60-60V265c0-30.1,22.1-55,51-59.3V285h30v-80
	h15C448.1,205,475,231.9,475,265z"/>
<path class="st10" d="M385,305c-8.3,0-15-6.7-15-15v-50c0-2.8,2.2-5,5-5h20c2.8,0,5,2.2,5,5v50C400,298.3,393.3,305,385,305z"/>
<path class="st11" d="M385,285c-8.3,0-15-6.7-15-15v-30c0-2.8,2.2-5,5-5h20c2.8,0,5,2.2,5,5v30C400,278.3,393.3,285,385,285z"/>
</svg>
