<?xml version="1.0" encoding="utf-8"?>
<!-- Generator: Adobe Illustrator 24.1.0, SVG Export Plug-In . SVG Version: 6.00 Build 0)  -->
<svg version="1.1" id="Capa_1" xmlns="http://www.w3.org/2000/svg" xmlns:xlink="http://www.w3.org/1999/xlink" x="0px" y="0px"
	 viewBox="0 0 512 512" style="enable-background:new 0 0 512 512;" xml:space="preserve">
<style type="text/css">
	.st0{fill:#00BDF2;}
	.st1{fill:#0085F2;}
	.st2{fill:#FFFFFF;}
	.st3{fill:#DCE1EB;}
	.st4{fill:#2864F0;}
	.st5{fill:#27488F;}
	.st6{fill:#FF9500;}
	.st7{fill:#F24500;}
	.st8{fill:#FFDA00;}
	.st9{fill:#CDD2E1;}
	.st10{fill:#BEC3D2;}
</style>
<g>
	<g>
		<g>
			<g>
				<g>
					<circle class="st0" cx="256" cy="256" r="256"/>
				</g>
			</g>
		</g>
	</g>
</g>
<path class="st1" d="M512,256c0-14.1-1.2-28-3.4-41.5L379.7,85.6L132.3,426.4l82.3,82.3c13.5,2.2,27.4,3.4,41.5,3.4
	C397.4,512,512,397.4,512,256z"/>
<g>
	<polygon class="st2" points="193.7,85.6 132.3,147.1 132.3,426.4 379.7,426.4 379.7,85.6 	"/>
</g>
<g>
	<rect x="255.9" y="85.6" class="st3" width="123.8" height="340.8"/>
</g>
<g>
	<polygon class="st4" points="309.4,453.5 272.7,433.8 235.9,453.5 235.9,391.1 309.4,391.1 	"/>
</g>
<g>
	<polygon class="st5" points="272.7,433.8 309.4,453.5 309.4,391.1 272.6,391.1 	"/>
</g>
<g>
	<polygon class="st6" points="186.8,337.7 210,317.4 203.2,287.2 233.9,284.4 246.1,256 272.7,271.9 299.2,256 311.4,284.4 
		342.1,287.2 335.3,317.4 358.5,337.7 335.3,358.1 342.1,388.2 311.4,391 299.2,419.4 272.7,403.6 246.1,419.4 233.9,391 
		203.2,388.2 210,358.1 	"/>
</g>
<g>
	<polygon class="st7" points="358.5,337.7 335.3,317.4 342.1,287.2 311.4,284.4 299.2,256 272.7,271.9 272.6,271.8 272.6,403.6 
		272.7,403.6 299.2,419.4 311.4,391 342.1,388.2 335.3,358.1 	"/>
</g>
<g>
	<circle class="st8" cx="272.7" cy="337.7" r="51.3"/>
</g>
<g>
	<path class="st6" d="M272.7,286.4C272.6,286.4,272.6,286.4,272.7,286.4L272.6,389c0,0,0,0,0.1,0c28.3,0,51.3-23,51.3-51.3
		S301,286.4,272.7,286.4z"/>
</g>
<g>
	<polygon class="st9" points="193.7,147.1 193.7,85.6 132.3,147.1 	"/>
</g>
<g>
	<rect x="163.2" y="172" class="st9" width="185.5" height="25"/>
</g>
<g>
	<rect x="255.9" y="172" class="st10" width="92.8" height="25"/>
</g>
<g>
	<rect x="163.2" y="216.9" class="st9" width="185.5" height="25"/>
</g>
<g>
	<rect x="255.9" y="216.9" class="st10" width="92.8" height="25"/>
</g>
</svg>
