<?xml version="1.0" encoding="utf-8"?>
<!-- Generator: Adobe Illustrator 24.1.0, SVG Export Plug-In . SVG Version: 6.00 Build 0)  -->
<svg version="1.1" id="Layer_1" xmlns="http://www.w3.org/2000/svg" xmlns:xlink="http://www.w3.org/1999/xlink" x="0px" y="0px"
	 viewBox="0 0 512 512" style="enable-background:new 0 0 512 512;" xml:space="preserve">
<style type="text/css">
	.st0{fill:#00BDF2;}
	.st1{fill:#0089F2;}
	.st2{fill:#FFFFFF;}
	.st3{fill:#55CFF2;}
	.st4{opacity:0.4;}
	.st5{fill:#2A3E4F;}
</style>
<g id="Others">
</g>
<g id="Design">
	<g id="blueprint">
		<circle class="st0" cx="256" cy="256" r="256"/>
		<g>
			<path class="st1" d="M84,135v263h314.9c15.7,0,28.1-12.6,28.1-27.9v-1.8V135H84z"/>
			<g>
				<path class="st2" d="M339,275.3c0,2-1.7,3.7-3.7,3.7H182.7c-2,0-3.7-1.6-3.7-3.7v-33.6c0-2,1.6-3.7,3.7-3.7h152.6
					c2,0,3.7,1.6,3.7,3.7L339,275.3L339,275.3z M186,273h146v-27H186V273z"/>
			</g>
			<g>
				<path class="st2" d="M355.6,311h-96.8c-2,0-3.7-1.5-3.7-3.5s1.7-3.5,3.7-3.5h96.8c2,0,3.7,1.5,3.7,3.5S357.6,311,355.6,311z"/>
			</g>
			<g>
				<path class="st2" d="M356.5,327H248.6c-2,0-3.7-1.5-3.7-3.5s1.7-3.5,3.7-3.5h107.9c2,0,3.7,1.5,3.7,3.5S358.5,327,356.5,327z"/>
			</g>
			<path class="st3" d="M398.5,114c-15.7,0-28.5,12.9-28.5,28.6v225c0-15.7,12.8-28.6,28.5-28.6s28.5,12.9,28.5,28.6v-225
				C427,126.9,414.2,114,398.5,114z"/>
			<g class="st4">
				<path class="st5" d="M370,367.6v1.8c0,12.5,8,23.2,19,27v-55.9C378,344.4,370,355.1,370,367.6z"/>
			</g>
			<g>
				<path class="st2" d="M285,215.1c0,7.1-5.8,12.9-12.9,12.9H125.9c-7.1,0-12.9-5.8-12.9-12.9v-51.2c0-7.1,5.8-12.9,12.9-12.9
					h146.2c7.1,0,12.9,5.8,12.9,12.9V215.1z M278,163.5c0-3.1-2.5-5.5-5.5-5.5H125.5c-3.1,0-5.5,2.5-5.5,5.5v51.9
					c0,3.1,2.5,5.5,5.5,5.5h146.9c3.1,0,5.5-2.5,5.5-5.5V163.5z"/>
			</g>
			<g>
				<path class="st2" d="M162,369.3c0,2-1.7,3.7-3.7,3.7h-41.6c-2,0-3.7-1.6-3.7-3.7V241.7c0-2,1.7-3.7,3.7-3.7h41.6
					c2,0,3.7,1.6,3.7,3.7V369.3z M120,366h34V246h-34V366z"/>
			</g>
			<g>
				<path class="st2" d="M218.1,337h-23.3c-1.3,0-2.5-0.6-3.2-1.8L180,315c-0.7-1.1-0.7-2.5,0-3.7l11.6-20.4
					c0.7-1.1,1.9-1.9,3.2-1.9h23.3c1.3,0,2.5,0.8,3.2,2l11.6,20.3c0.7,1.1,0.7,2.6,0,3.7l-11.6,20.2
					C220.6,336.4,219.4,337,218.1,337z M196.9,330h19l9.5-16.5l-9.5-16.5h-19l-9.5,16.5L196.9,330z"/>
			</g>
			<g>
				<path class="st2" d="M263.4,357h-80.2c-2,0-3.7-2-3.7-4s1.7-4,3.7-4h80.2c2,0,3.7,2,3.7,4S265.4,357,263.4,357z"/>
			</g>
			<g>
				<path class="st2" d="M269.8,371h-86.7c-2,0-3.7-1.5-3.7-3.5c0-2,1.7-3.5,3.7-3.5h86.7c2,0,3.7,1.5,3.7,3.5
					C273.5,369.5,271.9,371,269.8,371z"/>
			</g>
			<g>
				<path class="st2" d="M302.5,226.5c-2,0-3.5-1.6-3.5-3.7v-68.2c0-2,1.5-3.7,3.5-3.7s3.5,1.7,3.5,3.7v68.2
					C306,224.8,304.5,226.5,302.5,226.5z"/>
			</g>
			<g>
				<path class="st2" d="M318.5,203.4c-2,0-3.5-1.7-3.5-3.7v-45.2c0-2,1.5-3.7,3.5-3.7c2,0,3.5,1.7,3.5,3.7v45.2
					C322,201.8,320.5,203.4,318.5,203.4z"/>
			</g>
			<g>
				<path class="st2" d="M306.5,371.3c-2,0-3.5-1.6-3.5-3.7v-26.7c0-2,1.5-3.7,3.5-3.7s3.5,1.7,3.5,3.7v26.7
					C310,369.6,308.5,371.3,306.5,371.3z"/>
			</g>
		</g>
	</g>
</g>
<g id="SEO_x2F__Web">
</g>
<g id="Finance__x2F__Money">
</g>
<g id="E-Commerce__x2F__Shopping">
</g>
<g id="Strategy">
</g>
</svg>
