<?xml version="1.0" encoding="utf-8"?>
<!-- Generator: Adobe Illustrator 24.1.0, SVG Export Plug-In . SVG Version: 6.00 Build 0)  -->
<svg version="1.1" id="Layer_1" xmlns="http://www.w3.org/2000/svg" xmlns:xlink="http://www.w3.org/1999/xlink" x="0px" y="0px"
	 viewBox="0 0 256 256" style="enable-background:new 0 0 256 256;" xml:space="preserve">
<style type="text/css">
	.st0{fill:#0085F2;}
	.st1{fill:#00BDF2;}
	.st2{fill:#382B73;}
	.st3{fill:#473080;}
	.st4{fill:#34235E;}
	.st5{fill:#136DA0;}
	.st6{fill:#FFFFFF;}
	.st7{fill:#D1D3D4;}
	.st8{fill:#F7CB15;}
	.st9{fill:#FEDE3A;}
</style>
<g>
	<g>
		<circle class="st0" cx="127.7" cy="128" r="119.4"/>
		<circle class="st1" cx="127.7" cy="128" r="103.3"/>
	</g>
	<path class="st2" d="M196.6,114.4c0.6-0.6,1.1-1.3,1.4-2c0.1-0.1,0.1-0.3,0.1-0.4c0.1-0.3,0.2-0.6,0.2-1c0,0,0-0.1,0-0.1
		c0-0.1,0-0.3,0-0.4c0-0.2,0-0.4,0-0.7c0-0.1,0-0.1,0-0.2c0-0.2-0.1-0.4-0.2-0.6c0,0,0-0.1,0-0.1c0-0.1-0.1-0.2-0.1-0.3
		c0,0,0-0.1,0-0.1c0,0,0-0.1-0.1-0.1c0,0,0-0.1,0-0.1c-0.1-0.1-0.1-0.2-0.2-0.4l-0.5-0.9l-10.9-18.8c-1.2-2.1-3.8-3.1-6.1-2.3
		l-22.7,7.5c-2.6-1.8-5.3-3.4-8.2-4.7l-4.8-23.4c-0.5-2.4-2.6-4.1-5.1-4.1h-22.8c-2.5,0-4.6,1.7-5.1,4.1l-4.8,23.4
		c-2.9,1.3-5.6,2.9-8.2,4.7l-22.7-7.5c-2.3-0.8-4.9,0.2-6.1,2.3l-11.1,19.2l-0.3,0.5c-0.1,0.1-0.1,0.2-0.2,0.4c0,0,0,0.1,0,0.1
		c0,0,0,0.1-0.1,0.1c0,0,0,0.1,0,0.1c0,0.1-0.1,0.2-0.1,0.3c0,0,0,0.1,0,0.1c-0.1,0.2-0.1,0.4-0.2,0.6c0,0.1,0,0.1,0,0.2
		c0,0.2,0,0.4,0,0.7c0,0.1,0,0.3,0,0.4c0,0,0,0.1,0,0.1c0,0.3,0.1,0.6,0.2,1c0,0.1,0.1,0.3,0.1,0.4c0.3,0.7,0.8,1.4,1.4,2l16.9,15
		l1,0.9c-0.1,1.6-0.2,3.1-0.2,4.7c0,1.6,0.1,3.2,0.2,4.7l-17.9,15.9c-1.7,1.5-2.2,3.9-1.3,5.9c0,0,0,0,0,0c0,0,0,0.1,0,0.1
		c0,0,0,0,0,0c0,0,0,0,0,0.1c0,0,0,0,0,0c0,0,0,0,0,0c0,0,0,0,0,0.1c0,0,0,0,0,0c0,0,0,0.1,0,0.1c0,0,0,0,0,0c0,0,0,0.1,0.1,0.1
		l11.4,19.7c0,0.1,0.1,0.1,0.1,0.2c0.1,0.1,0.2,0.3,0.3,0.4c0,0,0,0.1,0.1,0.1c0.2,0.2,0.3,0.4,0.5,0.6c0,0,0.1,0,0.1,0.1
		c0.6,0.5,1.2,0.8,1.9,1.1c0.1,0,0.1,0,0.2,0.1c0.1,0,0.1,0,0.2,0.1c0,0,0.1,0,0.1,0c0.2,0,0.4,0.1,0.5,0.1c0.1,0,0.3,0,0.4,0
		c0.1,0,0.3,0,0.4,0s0.3,0,0.4-0.1c0.3,0,0.5-0.1,0.8-0.2l22.7-7.5c2.6,1.8,5.3,3.4,8.2,4.7l2.4,11.7l2.4,11.7
		c0.1,0.5,0.2,0.9,0.4,1.3c0,0.1,0.1,0.2,0.2,0.3c0.1,0.2,0.3,0.4,0.4,0.6c0,0,0,0.1,0.1,0.1c0.1,0.1,0.2,0.2,0.3,0.3
		c0.1,0.1,0.1,0.1,0.2,0.2c0.3,0.2,0.5,0.4,0.8,0.6c0,0,0,0,0.1,0c0.8,0.5,1.7,0.7,2.6,0.7h22.8c1.2,0,2.3-0.4,3.2-1.1
		c0,0,0.1,0,0.1-0.1c0.1-0.1,0.2-0.2,0.3-0.3c0.1,0,0.1-0.1,0.2-0.2c0.1-0.1,0.2-0.2,0.3-0.3c0,0,0-0.1,0.1-0.1
		c0-0.1,0.1-0.1,0.1-0.2c0,0,0-0.1,0.1-0.1c0.1-0.1,0.2-0.2,0.2-0.4c0.1-0.1,0.1-0.2,0.2-0.3c0.2-0.4,0.3-0.8,0.4-1.3l2.4-11.7
		l2.4-11.7c2.9-1.3,5.6-2.9,8.2-4.7l22.7,7.5c0.3,0.1,0.7,0.2,1,0.2c0.1,0,0.1,0,0.2,0c0.1,0,0.3,0,0.4,0c0.2,0,0.4,0,0.7,0
		c0.1,0,0.1,0,0.2,0c0.1,0,0.1,0,0.2,0c0.2-0.1,0.5-0.1,0.7-0.2c0,0,0.1,0,0.1,0c0.2-0.1,0.4-0.2,0.6-0.3c0,0,0.1,0,0.1-0.1
		c0.2-0.1,0.3-0.2,0.5-0.3c0,0,0.1,0,0.1-0.1c0.1-0.1,0.2-0.1,0.3-0.2c0,0,0.1,0,0.1-0.1c0.1-0.1,0.1-0.1,0.2-0.2
		c0,0,0.1-0.1,0.1-0.1c0,0,0.1-0.1,0.1-0.1c0,0,0.1-0.1,0.1-0.1c0-0.1,0.1-0.1,0.1-0.2c0,0,0.1-0.1,0.1-0.1c0.1-0.1,0.2-0.3,0.3-0.4
		l11.4-19.7c0,0,0-0.1,0.1-0.1c0,0,0,0,0,0c0,0,0-0.1,0-0.1c0,0,0,0,0,0c0,0,0,0,0-0.1c0,0,0,0,0,0c0,0,0,0,0,0c0,0,0,0,0-0.1
		c0,0,0,0,0,0c0,0,0-0.1,0-0.1c0,0,0,0,0,0c0.9-2,0.3-4.4-1.3-5.9l-17.9-15.9c0.1-1.6,0.2-3.1,0.2-4.7c0-1.6-0.1-3.2-0.2-4.7l1-0.9
		L196.6,114.4z"/>
	<g>
		<g>
			<g>
				<path class="st3" d="M178.8,132.7c0.1-1.6,0.2-3.1,0.2-4.7c0-1.6-0.1-3.2-0.2-4.7l17.9-15.9c1.8-1.6,2.3-4.3,1-6.5l-11.4-19.7
					c-1.2-2.1-3.8-3.1-6.1-2.3l-22.7,7.5c-2.5-1.8-5.3-3.4-8.1-4.7l-4.8-23.4c-0.5-2.4-2.6-4.1-5.1-4.1h-22.8
					c-2.5,0-4.6,1.7-5.1,4.1l-4.8,23.4c-2.9,1.3-5.6,2.9-8.1,4.7l-22.7-7.5c-2.3-0.8-4.9,0.2-6.1,2.3l-11.4,19.7
					c-1.2,2.1-0.8,4.8,1,6.5l17.9,15.9c-0.1,1.6-0.2,3.1-0.2,4.7c0,1.6,0.1,3.2,0.2,4.7l-17.9,15.9c-1.8,1.6-2.3,4.3-1,6.5
					l11.4,19.7c1.2,2.1,3.8,3.1,6.1,2.3l22.7-7.5c2.5,1.8,5.3,3.4,8.1,4.7l4.8,23.4c0.5,2.4,2.6,4.1,5.1,4.1h22.8
					c2.5,0,4.6-1.7,5.1-4.1l4.8-23.4c2.9-1.3,5.6-2.9,8.1-4.7l22.7,7.5c2.3,0.8,4.9-0.2,6.1-2.3l11.4-19.7c1.2-2.1,0.8-4.8-1-6.5
					L178.8,132.7z M128,156c-15.5,0-28-12.5-28-28c0-15.5,12.5-28,28-28c15.5,0,28,12.5,28,28C156,143.5,143.5,156,128,156z"/>
				<g>
					<path class="st4" d="M77.1,123.1c0-0.8-0.1-1.7-0.1-2.6c0-1.6,0.1-3.2,0.2-4.7L59.4,100c-0.1-0.1-0.2-0.2-0.3-0.3l-0.7,1.3
						c-1.2,2.1-0.8,4.8,1,6.5L77.1,123.1z"/>
					<path class="st4" d="M128,92.6c-15.5,0-28,12.5-28,28c0,1.3,0.1,2.5,0.3,3.7c1.8-13.7,13.5-24.3,27.7-24.3
						c14.2,0,25.9,10.6,27.7,24.3c0.2-1.2,0.3-2.4,0.3-3.7C156,105.1,143.5,92.6,128,92.6z"/>
					<path class="st4" d="M178.8,125.3l0.2,0.1c0-0.4-0.1-0.8-0.1-1.1C178.8,124.6,178.8,125,178.8,125.3z"/>
					<path class="st4" d="M196.9,99.7c-0.1,0.1-0.2,0.2-0.3,0.3l-17.9,15.9c0.1,1.6,0.2,3.1,0.2,4.7c0,0.9,0,1.7-0.1,2.6l17.7-15.7
						c1.8-1.6,2.3-4.3,1-6.5L196.9,99.7z"/>
					<path class="st4" d="M77.2,125.3c0-0.3,0-0.7-0.1-1c0,0.4-0.1,0.8-0.1,1.1L77.2,125.3z"/>
					<path class="st4" d="M186.3,167.4c-1.2,2.1-3.8,3.1-6.1,2.3l-22.7-7.5c-2.5,1.8-5.3,3.4-8.1,4.7l-4.8,23.4
						c-0.5,2.4-2.6,4.1-5.1,4.1h-22.8c-2.5,0-4.6-1.7-5.1-4.1l-4.8-23.4c-2.9-1.3-5.6-2.9-8.1-4.7l-22.7,7.5
						c-2.3,0.8-4.9-0.2-6.1-2.3l-10.7-18.5c-1.6,1.7-1.9,4.1-0.7,6.1l11.4,19.7c1.2,2.1,3.8,3.1,6.1,2.3l22.7-7.5
						c2.5,1.8,5.3,3.4,8.1,4.7l4.8,23.4c0.5,2.4,2.6,4.1,5.1,4.1h22.8c2.5,0,4.6-1.7,5.1-4.1l4.8-23.4c2.9-1.3,5.6-2.9,8.1-4.7
						l22.7,7.5c2.3,0.8,4.9-0.2,6.1-2.3l11.4-19.7c1.2-2,0.8-4.5-0.7-6.1L186.3,167.4z"/>
				</g>
				<g>
					<path class="st5" d="M128,77c-28.2,0-51,22.8-51,51c0,28.2,22.8,51,51,51c28.2,0,51-22.8,51-51C179,99.8,156.2,77,128,77z
						 M128,156c-15.5,0-28-12.5-28-28c0-15.5,12.5-28,28-28c15.5,0,28,12.5,28,28C156,143.5,143.5,156,128,156z"/>
				</g>
				<path class="st3" d="M128,89.6c-21.2,0-38.4,17.2-38.4,38.4c0,21.2,17.2,38.4,38.4,38.4c21.2,0,38.4-17.2,38.4-38.4
					C166.4,106.8,149.2,89.6,128,89.6z"/>
			</g>
		</g>
		<g>
			<path class="st4" d="M154,126.5c1.1,0,2-0.9,2-2c0-0.1,0-0.3,0-0.4c0,0,0,0,0,0c-0.2-0.9-1-1.6-2-1.6h-3.6v-5.7h3.6
				c1.1,0,2-0.9,2-2c0-0.1,0-0.3,0-0.4c0,0,0,0,0,0c-0.2-0.9-1-1.6-2-1.6h-3.6v-2.5c0-1.8-1.5-3.3-3.3-3.3h-2.5v-1.4v-2.2
				c0-1.1-0.9-2-2-2s-2,0.9-2,2v2.2c0,0,0,0,0,0v1.4h-5.7v-1.4c0,0,0,0,0,0v-2.2c0-1.1-0.9-2-2-2s-2,0.9-2,2v2.2c0,0,0,0,0,0v1.4
				h-5.7v-1.4c0,0,0,0,0,0v-2.2c0-1.1-0.9-2-2-2s-2,0.9-2,2v2.2c0,0,0,0,0,0v1.4h-5.7v-1.4c0,0,0,0,0,0v-2.2c0-1.1-0.9-2-2-2
				c-1.1,0-2,0.9-2,2v2.2v1.4h-2.5c-1.8,0-3.3,1.5-3.3,3.3v2.5H102c-1,0-1.8,0.7-2,1.6c0,0,0,0,0,0c0,0.1,0,0.3,0,0.4
				c0,1.1,0.9,2,2,2h3.6v5.7H102c-1,0-1.8,0.7-2,1.6c0,0,0,0,0,0c0,0.1,0,0.3,0,0.4c0,1.1,0.9,2,2,2h3.6v5.7H102c-1,0-1.8,0.7-2,1.6
				c0,0,0,0,0,0c0,0.1,0,0.3,0,0.4c0,1.1,0.9,2,2,2h3.6v5.7H102c-1,0-1.8,0.7-2,1.6c0,0,0,0,0,0c0,0.1,0,0.3,0,0.4c0,1.1,0.9,2,2,2
				h3.6v2.5c0,1.8,1.5,3.3,3.3,3.3h2.5v1.7v0.3c0,0,0,0,0,0v1.6c0,0.4,0.1,0.8,0.3,1.1c0.4,0.5,1,0.9,1.7,0.9c0.4,0,0.8-0.1,1.1-0.3
				c0.5-0.4,0.9-1,0.9-1.7v-1.9v-1.7h5.7v1.7v0.3v1.6l0,0c0,0.3,0.1,0.5,0.2,0.8c0.3,0.7,1,1.2,1.9,1.2c0.8,0,1.6-0.5,1.9-1.2
				c0.1-0.2,0.2-0.5,0.2-0.8l0,0v-1.6v-0.3v-1.7h5.7v1.7v0.3v1.6l0,0c0,0.3,0.1,0.5,0.2,0.8c0.3,0.7,1,1.2,1.9,1.2
				c0.8,0,1.6-0.5,1.9-1.2c0.1-0.2,0.2-0.5,0.2-0.8l0,0v-1.6v-0.3v-1.7h5.7v1.7v1.9c0,0.4,0.1,0.8,0.3,1.1c0.4,0.5,1,0.9,1.7,0.9
				c0.4,0,0.8-0.1,1.1-0.3c0.5-0.4,0.9-1,0.9-1.7v-1.6c0,0,0,0,0,0v-0.3v-1.7h2.5c1.8,0,3.3-1.5,3.3-3.3v-2.5h3.6c1.1,0,2-0.9,2-2
				c0-0.1,0-0.3,0-0.4c0,0,0,0,0,0c-0.2-0.9-1-1.6-2-1.6h-3.6v-5.7h3.6c1.1,0,2-0.9,2-2c0-0.1,0-0.3,0-0.4c0,0,0,0,0,0
				c-0.2-0.9-1-1.6-2-1.6h-3.6v-5.7H154z"/>
			<g>
				<path class="st6" d="M144.8,112.1c0-1.1,0.9-2,2-2h7.2c1.1,0,2,0.9,2,2s-0.9,2-2,2h-7.2C145.7,114.1,144.8,113.2,144.8,112.1z
					 M154,119.8h-7.2c-1.1,0-2,0.9-2,2s0.9,2,2,2h7.2c1.1,0,2-0.9,2-2S155.1,119.8,154,119.8z M154,129.5h-7.2c-1.1,0-2,0.9-2,2
					s0.9,2,2,2h7.2c1.1,0,2-0.9,2-2S155.1,129.5,154,129.5z M154,139.2h-7.2c-1.1,0-2,0.9-2,2c0,1.1,0.9,2,2,2h7.2c1.1,0,2-0.9,2-2
					C156,140.1,155.1,139.2,154,139.2z"/>
				<g>
					<path class="st7" d="M154,141.6h-7.2c-0.8,0-1.5-0.5-1.8-1.2c-0.1,0.3-0.2,0.5-0.2,0.8c0,1.1,0.9,2,2,2h7.2c1.1,0,2-0.9,2-2
						c0-0.3-0.1-0.6-0.2-0.8C155.5,141.1,154.8,141.6,154,141.6z"/>
					<path class="st7" d="M154,131.9h-7.2c-0.8,0-1.5-0.5-1.8-1.2c-0.1,0.3-0.2,0.5-0.2,0.8c0,1.1,0.9,2,2,2h7.2c1.1,0,2-0.9,2-2
						c0-0.3-0.1-0.6-0.2-0.8C155.5,131.4,154.8,131.9,154,131.9z"/>
					<path class="st7" d="M154,112.5h-7.2c-0.8,0-1.5-0.5-1.8-1.2c-0.1,0.3-0.2,0.5-0.2,0.8c0,1.1,0.9,2,2,2h7.2c1.1,0,2-0.9,2-2
						c0-0.3-0.1-0.6-0.2-0.8C155.5,112,154.8,112.5,154,112.5z"/>
					<path class="st7" d="M154,122.2h-7.2c-0.8,0-1.5-0.5-1.8-1.2c-0.1,0.3-0.2,0.5-0.2,0.8c0,1.1,0.9,2,2,2h7.2c1.1,0,2-0.9,2-2
						c0-0.3-0.1-0.6-0.2-0.8C155.5,121.7,154.8,122.2,154,122.2z"/>
				</g>
				<path class="st6" d="M100,112.1c0-1.1,0.9-2,2-2h7.2c1.1,0,2,0.9,2,2s-0.9,2-2,2H102C100.9,114.1,100,113.2,100,112.1z
					 M109.2,119.8H102c-1.1,0-2,0.9-2,2s0.9,2,2,2h7.2c1.1,0,2-0.9,2-2S110.3,119.8,109.2,119.8z M109.2,129.5H102c-1.1,0-2,0.9-2,2
					s0.9,2,2,2h7.2c1.1,0,2-0.9,2-2S110.3,129.5,109.2,129.5z M109.2,139.2H102c-1.1,0-2,0.9-2,2c0,1.1,0.9,2,2,2h7.2
					c1.1,0,2-0.9,2-2C111.2,140.1,110.3,139.2,109.2,139.2z"/>
				<g>
					<path class="st7" d="M109.2,131.9H102c-0.8,0-1.5-0.5-1.8-1.2c-0.1,0.3-0.2,0.5-0.2,0.8c0,1.1,0.9,2,2,2h7.2c1.1,0,2-0.9,2-2
						c0-0.3-0.1-0.6-0.2-0.8C110.7,131.4,110,131.9,109.2,131.9z"/>
					<path class="st7" d="M109.2,141.6H102c-0.8,0-1.5-0.5-1.8-1.2c-0.1,0.3-0.2,0.5-0.2,0.8c0,1.1,0.9,2,2,2h7.2c1.1,0,2-0.9,2-2
						c0-0.3-0.1-0.6-0.2-0.8C110.7,141.1,110,141.6,109.2,141.6z"/>
					<path class="st7" d="M109.2,122.2H102c-0.8,0-1.5-0.5-1.8-1.2c-0.1,0.3-0.2,0.5-0.2,0.8c0,1.1,0.9,2,2,2h7.2c1.1,0,2-0.9,2-2
						c0-0.3-0.1-0.6-0.2-0.8C110.7,121.7,110,122.2,109.2,122.2z"/>
					<path class="st7" d="M109.2,112.5H102c-0.8,0-1.5-0.5-1.8-1.2c-0.1,0.3-0.2,0.5-0.2,0.8c0,1.1,0.9,2,2,2h7.2c1.1,0,2-0.9,2-2
						c0-0.3-0.1-0.6-0.2-0.8C110.7,112,110,112.5,109.2,112.5z"/>
				</g>
				<g>
					<path class="st6" d="M115.5,100.7v7.2c0,1.1-0.9,2-2,2l0,0c-1.1,0-2-0.9-2-2v-7.2c0-1.1,0.9-2,2-2l0,0
						C114.6,98.7,115.5,99.6,115.5,100.7z"/>
					<path class="st6" d="M125.2,100.7v7.2c0,1.1-0.9,2-2,2l0,0c-1.1,0-2-0.9-2-2v-7.2c0-1.1,0.9-2,2-2l0,0
						C124.3,98.7,125.2,99.6,125.2,100.7z"/>
					<path class="st6" d="M134.9,100.7v7.2c0,1.1-0.9,2-2,2l0,0c-1.1,0-2-0.9-2-2v-7.2c0-1.1,0.9-2,2-2l0,0
						C134,98.7,134.9,99.6,134.9,100.7z"/>
					<path class="st6" d="M144.6,100.7v7.2c0,1.1-0.9,2-2,2l0,0c-1.1,0-2-0.9-2-2v-7.2c0-1.1,0.9-2,2-2l0,0
						C143.7,98.7,144.6,99.6,144.6,100.7z"/>
				</g>
				<path class="st6" d="M115.5,145.5v7.2c0,1.1-0.9,2-2,2c-1.1,0-2-0.9-2-2v-7.2c0-1.1,0.9-2,2-2
					C114.6,143.5,115.5,144.4,115.5,145.5z M123.1,143.5c-1.1,0-2,0.9-2,2v7.2c0,1.1,0.9,2,2,2s2-0.9,2-2v-7.2
					C125.2,144.4,124.3,143.5,123.1,143.5z M132.9,143.5c-1.1,0-2,0.9-2,2v7.2c0,1.1,0.9,2,2,2c1.1,0,2-0.9,2-2v-7.2
					C134.9,144.4,134,143.5,132.9,143.5z M142.6,143.5c-1.1,0-2,0.9-2,2v7.2c0,1.1,0.9,2,2,2s2-0.9,2-2v-7.2
					C144.6,144.4,143.7,143.5,142.6,143.5z"/>
				<g>
					<path class="st7" d="M123.1,153c-1.1,0-2-0.9-2-2v1.6c0,1.1,0.9,2,2,2c1.1,0,2-0.9,2-2V151C125.2,152.1,124.3,153,123.1,153z"
						/>
					<path class="st7" d="M113.4,153c-1.1,0-2-0.9-2-2v1.6c0,1.1,0.9,2,2,2c1.1,0,2-0.9,2-2V151C115.5,152.1,114.6,153,113.4,153z"
						/>
					<path class="st7" d="M132.9,153c-1.1,0-2-0.9-2-2v1.6c0,1.1,0.9,2,2,2c1.1,0,2-0.9,2-2V151C134.9,152.1,134,153,132.9,153z"/>
					<path class="st7" d="M142.6,153c-1.1,0-2-0.9-2-2v1.6c0,1.1,0.9,2,2,2s2-0.9,2-2V151C144.6,152.1,143.7,153,142.6,153z"/>
				</g>
				<g>
					<path class="st7" d="M140.5,145.7v5h4v-5c0-0.1,0-0.2,0-0.2h-4C140.6,145.6,140.5,145.6,140.5,145.7z"/>
					<path class="st7" d="M115.5,150.7v-5c0-0.1,0-0.2,0-0.2h-4c0,0.1,0,0.2,0,0.2v5H115.5z"/>
					<path class="st7" d="M125.2,145.7c0-0.1,0-0.2,0-0.2h-4c0,0.1,0,0.2,0,0.2v5h4V145.7z"/>
					<path class="st7" d="M134.9,145.7c0-0.1,0-0.2,0-0.2h-4c0,0.1,0,0.2,0,0.2v5h4V145.7z"/>
				</g>
				<g>
					<path class="st7" d="M140.5,102.9v5h4v-5c0-0.1,0-0.2,0-0.2h-4C140.6,102.7,140.5,102.8,140.5,102.9z"/>
					<path class="st7" d="M115.5,107.9v-5c0-0.1,0-0.2,0-0.2h-4c0,0.1,0,0.2,0,0.2v5H115.5z"/>
					<path class="st7" d="M125.2,102.9c0-0.1,0-0.2,0-0.2h-4c0,0.1,0,0.2,0,0.2v5h4V102.9z"/>
					<path class="st7" d="M134.9,102.9c0-0.1,0-0.2,0-0.2h-4c0,0.1,0,0.2,0,0.2v5h4V102.9z"/>
				</g>
				<path class="st8" d="M147.1,149.1h-38.2c-1.8,0-3.3-1.5-3.3-3.3v-38.2c0-1.8,1.5-3.3,3.3-3.3h38.2c1.8,0,3.3,1.5,3.3,3.3v38.2
					C150.4,147.6,148.9,149.1,147.1,149.1z"/>
				<path class="st9" d="M147.1,146.9h-38.2c-0.6,0-1.1-0.5-1.1-1.1v-38.2c0-0.6,0.5-1.1,1.1-1.1h38.2c0.6,0,1.1,0.5,1.1,1.1v38.2
					C148.2,146.4,147.7,146.9,147.1,146.9z"/>
			</g>
			<g>
				<path class="st8" d="M136.4,127.4h-4c-1,0-1.7-0.8-1.7-1.7v-10.1c0-1.6-2-2.3-3.1-1.1l-9.3,11.5c-0.9,1.1-0.1,2.8,1.3,2.8h4
					c1,0,1.7,0.8,1.7,1.7v10.1c0,1.6,2,2.3,3.1,1.1l9.3-11.5C138.6,129.1,137.8,127.4,136.4,127.4z"/>
				<path class="st3" d="M136.4,124.5h-4c-1,0-1.7-0.8-1.7-1.7v-10.1c0-1.6-2-2.3-3.1-1.1l-9.3,11.5c-0.9,1.1-0.1,2.8,1.3,2.8h4
					c1,0,1.7,0.8,1.7,1.7v10.1c0,1.6,2,2.3,3.1,1.1l9.3-11.5C138.6,126.2,137.8,124.5,136.4,124.5z"/>
				<g>
					<path class="st4" d="M125.3,123.3c0-1-0.8-1.7-1.7-1.7h-4c0,0-0.1,0-0.1,0l-1.2,1.5c-0.9,1.1-0.1,2.8,1.3,2.8h4
						c1,0,1.7,0.8,1.7,1.7V123.3z"/>
					<path class="st4" d="M136.5,124.5l-8.1,10c-1,1.3-3.1,0.5-3.1-1.1v4.3c0,1.6,2,2.3,3.1,1.1l9.3-11.5
						C138.6,126.2,137.8,124.6,136.5,124.5z"/>
				</g>
			</g>
		</g>
	</g>
</g>
</svg>
