<?xml version="1.0" encoding="utf-8"?>
<!-- Generator: Adobe Illustrator 24.1.0, SVG Export Plug-In . SVG Version: 6.00 Build 0)  -->
<svg version="1.1" id="Capa_1" xmlns="http://www.w3.org/2000/svg" xmlns:xlink="http://www.w3.org/1999/xlink" x="0px" y="0px"
	 viewBox="0 0 512 512" style="enable-background:new 0 0 512 512;" xml:space="preserve">
<style type="text/css">
	.st0{fill:#00BDF2;}
	.st1{fill:#FFFFFF;}
	.st2{fill:#0072B5;}
	.st3{fill:#F77759;}
	.st4{fill:#E6E6E6;}
	.st5{fill:#CCCCCC;}
	.st6{fill:#1AA5E2;}
	.st7{fill:#B3B3B3;}
</style>
<path class="st0" d="M512,256c0,81.1-37.7,153.3-96.5,200.2c-12.9,10.3-26.7,19.3-41.5,27C338.8,501.6,298.6,512,256,512
	s-82.8-10.4-118.1-28.8c-24.7-12.9-47.1-29.7-66.2-49.6C27.3,387.6,0,325,0,256C0,114.6,114.6,0,256,0C397.4,0,512,114.6,512,256z"
	/>
<path class="st1" d="M415.5,456.2c-12.9,10.3-26.7,19.3-41.5,27C338.8,501.6,298.6,512,256,512s-82.8-10.4-118.1-28.8
	c-24.7-12.9-47.1-29.7-66.2-49.6c17.9-16.1,44.2-17.8,64-5.1c5.1-11.2,16.3-19,29.4-19c7.8,0,15,2.8,20.6,7.4
	c3.9-21.9,22.9-38.5,45.9-38.5c1.9,0,3.7,0.1,5.6,0.3v-61.4h37.8v75.6c1.1-0.1,2.2-0.2,3.3-0.2c14.7,0,27,9.8,31,23.2
	c11.2,1.5,22,6.5,30.6,15.1c0.7,0.7,1.3,1.4,2,2.1c7.7-8.9,19.1-14.6,31.8-14.6C395.4,418.5,413.3,435,415.5,456.2z"/>
<path class="st2" d="M374.1,483.2C338.8,501.6,298.6,512,256,512s-82.8-10.4-118.1-28.8c35.3-18.4,75.5-28.8,118.1-28.8
	S338.8,464.8,374.1,483.2z"/>
<g>
	<path class="st3" d="M286.2,305.1h-60.5c-10.3,0-18.6-8.3-18.6-18.6v-19.1h97.7v19.1C304.8,296.8,296.5,305.1,286.2,305.1z"/>
	<path class="st3" d="M327.7,177.7c0,0,39.7,38.3,52.5,80.8c3.7,12.3-5.7,24.6-18.6,24.6h-47.3"/>
	<path class="st3" d="M184.3,177.7c0,0-39.4,38-52.3,80.3c-3.8,12.5,5.4,25.1,18.4,25.1h47.3"/>
</g>
<path class="st4" d="M278.6,101.7c-12.6-12.2-32.7-12.2-45.3,0c-25.2,24.4-62.4,74.1-62.4,154.9c0,0.1,0,0.2,0,0.3
	c0.1,14.6,12.2,26.3,26.8,26.3h116.6c14.6,0,26.7-11.7,26.8-26.3c0-0.1,0-0.2,0-0.3C341,175.8,303.8,126.1,278.6,101.7z"/>
<path class="st5" d="M256,92.5c-3.6,0-7.2,3.1-10,9.2c-11.2,24.4-27.7,74.1-27.7,154.9v0.3c0,14.6,5.4,26.3,11.9,26.3h-32.5
	c-14.6,0-26.7-11.7-26.8-26.3v-0.3c0-80.8,37.2-130.5,62.4-154.9C239.6,95.6,247.8,92.5,256,92.5z"/>
<circle class="st6" cx="256" cy="207.7" r="41.1"/>
<path class="st7" d="M256,256c-26.6,0-48.3-21.7-48.3-48.3s21.7-48.3,48.3-48.3s48.3,21.7,48.3,48.3S282.6,256,256,256z M256,173.8
	c-18.7,0-33.9,15.2-33.9,33.9s15.2,33.9,33.9,33.9s33.9-15.2,33.9-33.9S274.6,173.8,256,173.8z"/>
<g>
	<polygon class="st1" points="82.3,306.9 130.6,301.6 82.3,296.3 77,248.1 71.7,296.3 23.5,301.6 71.7,306.9 77,355.1 	"/>
	<polygon class="st1" points="418.1,149.3 466.3,143.9 418.1,138.6 412.8,90.4 407.5,138.6 359.3,143.9 407.5,149.3 412.8,197.5 	
		"/>
	
		<rect x="114.7" y="337.7" transform="matrix(0.7071 -0.7071 0.7071 0.7071 -207.3519 185.2006)" class="st1" width="10.4" height="10.4"/>
	
		<rect x="130.9" y="87.5" transform="matrix(0.7071 -0.7071 0.7071 0.7071 -25.681 123.3827)" class="st1" width="10.4" height="10.4"/>
	
		<rect x="315.2" y="46.1" transform="matrix(0.7071 -0.7071 0.7071 0.7071 57.5495 241.591)" class="st1" width="10.4" height="10.4"/>
	
		<rect x="386.3" y="368.7" transform="matrix(0.7071 -0.7071 0.7071 0.7071 -149.709 386.3115)" class="st1" width="10.4" height="10.4"/>
	
		<rect x="444" y="286" transform="matrix(0.7071 -0.7071 0.7071 0.7071 -74.3076 402.9085)" class="st1" width="10.4" height="10.4"/>
</g>
</svg>
