<?xml version="1.0" encoding="utf-8"?>
<!-- Generator: Adobe Illustrator 24.1.0, SVG Export Plug-In . SVG Version: 6.00 Build 0)  -->
<svg version="1.1" id="Layer_1" xmlns="http://www.w3.org/2000/svg" xmlns:xlink="http://www.w3.org/1999/xlink" x="0px" y="0px"
	 viewBox="0 0 512 512" style="enable-background:new 0 0 512 512;" xml:space="preserve">
<style type="text/css">
	.st0{fill:#0071B3;}
	.st1{fill:#BEC8F7;}
	.st2{fill:#A8B7EF;}
	.st3{fill:#E9EFFF;}
	.st4{fill:#DAE2FE;}
	.st5{fill:#4F71B6;}
	.st6{fill:#3C58A0;}
	.st7{fill:#FFDD40;}
	.st8{fill:#FFC839;}
	.st9{fill:#00BDF2;}
	.st10{fill:#FFB332;}
</style>
<path class="st0" d="M245,11.5c-135.3,0-245,109.7-245,245c0,18.7,2.1,36.9,6.1,54.4l47.7,98.7c10.4,12.9,22,24.8,34.7,35.4
	l87.1,46.5c22,6.5,45.3,10,69.4,10c135.3,0,245-109.7,245-245S380.3,11.5,245,11.5z"/>
<path class="st1" d="M383.3,232.2c-13.3-13.3-20.6-30.3-22-47.6c-1.8,19.5-10.1,38-24.1,51.9l-35.4,35.4c11.7-6.7,26.9-5.1,36.9,4.9
	c10,10,11.6,25.2,4.9,36.9l35.1-35.1c14-14,32.4-22.5,51.9-24.4C413.4,252.8,396.5,245.5,383.3,232.2L383.3,232.2z"/>
<path class="st2" d="M192.5,423.1c-10-10-11.6-25.2-4.9-36.9l-35.1,35.1c-14,14-32.4,22.5-51.9,24.4c17.3,1.5,34.1,8.8,47.3,22
	c5.9,5.9,10.5,12.4,14.1,19.4c4.5,1.6,9,3.1,13.6,4.4c4.1-10.5,10.3-20.1,18.4-28.2l35.4-35.4C217.7,434.7,202.5,433,192.5,423.1
	L192.5,423.1z"/>
<path class="st3" d="M339.7,275.8c-12.5-12.5-32.8-12.5-45.3,0l-103,103c-12.5,12.5-12.5,32.8,0,45.3s32.8,12.5,45.3,0l103-103
	C352.2,308.7,352.2,288.3,339.7,275.8z"/>
<path class="st1" d="M245.6,370.4c-11.2-11.2-12.6-28.6-4.3-41.4l-49.8,49.8c-12.5,12.5-12.5,32.8,0,45.3s32.8,12.5,45.3,0
	l48.3-48.3C272.5,382.8,256.2,381,245.6,370.4z"/>
<path class="st3" d="M465.4,108.8c4.3,1.8,4.7,7.7,0.7,10l-54.9,31.7c-3.2,1.8-5.1,5.2-5.1,8.8v30.7c0,3.6,1.9,7,5.1,8.8l26.6,15.4
	c3.2,1.8,7,1.8,10.2,0l55.7-32.1c3.9-2.3,8.8,0.9,8.3,5.4c-1.9,17.4-9.8,34.2-23.6,47.2c-28.6,26.8-73.6,27.3-102.7,1.1
	c-32.6-29.4-33.6-79.7-3-110.3C405,103,437.9,97.5,465.4,108.8L465.4,108.8z"/>
<path class="st4" d="M148.6,467c-16.5-16.5-38.6-23.8-60.1-22c22,18.3,47.2,32.8,74.7,42.5C159.6,480.1,154.7,473.1,148.6,467
	L148.6,467z"/>
<path class="st3" d="M378,44.9c2.4-3.6,1.9-8.4-1.1-11.5c-0.1-0.2-19.6-19.6-20.2-20.2c-3.1-3.1-7.9-3.6-11.5-1.1l-28.2,18.8
	C308.7,36.3,302.1,44,298,53L292,66.5c-1.9,4.2-4.1,8.3-6.5,12.2c-0.8,6.8,1.4,14,6.7,19.2s12.4,7.5,19.2,6.7
	c3.9-2.4,8-4.6,12.2-6.5L337,92c9-4.1,16.8-10.6,22.2-18.9L378,44.9z"/>
<g>
	<path class="st1" d="M293.2,96.9c-5.8-5.8-7.8-14.5-5.4-22.2c-4.7,8.3-10.4,15.9-17.2,22.7L169.5,198.4l22.1,22.1l101.1-101.1
		c6.7-6.7,14.4-12.5,22.7-17.2C307.7,104.7,299,102.7,293.2,96.9z"/>
</g>
<path class="st2" d="M169.5,198.4l22.1,22.1l53.4-53.4c-26.8,1.9-22.3-21.8-22.3-21.8L169.5,198.4z"/>
<path class="st5" d="M141.7,205.1l22.6,22.6l22.6,22.6c0.4,0.4,0.8,0.9,1.2,1.3c0.1-0.1,0.2-0.3,0.3-0.4c3.6-5.8,7.6-11,12-15.7
	c2.5-2.7,2.4-6.8-0.2-9.4L166,191.9c-2.6-2.6-6.7-2.6-9.4-0.2c-4.7,4.3-9.9,8.4-15.7,12c-0.2,0.1-0.3,0.2-0.4,0.3
	C140.8,204.3,141.3,204.7,141.7,205.1z"/>
<path class="st6" d="M166,191.8c-2.6-2.6-6.7-2.6-9.4-0.2c-4.7,4.3-9.9,8.4-15.7,12c-0.2,0.1-0.3,0.2-0.4,0.3
	c0.5,0.4,0.9,0.8,1.3,1.2l21.9,21.9l1.3-0.1c-2.9-18.3,18.2-18,18.2-18L166,191.8z"/>
<path class="st7" d="M105,231c0.4,0.2,0.8,0.5,1.2,0.9l53.8,53.8c0.4,0.4,0.7,0.8,0.9,1.2c5.7-3,12-5.6,18.8-7.6
	c5.6-1.6,10-5.8,11.9-11.3l0.1-0.3c2.2-6.4,0.5-13.4-4.2-18.2L164.9,227l-22.6-22.6c-4.8-4.8-11.8-6.4-18.2-4.2l-0.3,0.1
	c-5.5,1.9-9.7,6.3-11.3,11.9C110.6,219,108,225.3,105,231L105,231z"/>
<path class="st7" d="M48.6,281.8c-15.8,7.2-30.1,17.1-42.5,29.1c2.2,9.5,4.9,18.8,8.1,27.8c4.2-2.1,8.9-4,13.8-5.4
	c18.8-5.5,36.2,11.9,30.7,30.7c-2.1,7.3-5.4,14.2-8.5,19.7c-3.1,5.5-4.2,10.7-4.4,15.3c2.6,3.6,5.3,7.2,8.1,10.6l14-11.5
	c18.1-14.9,32.7-33.5,42.4-54.8c5.4-11.7,13.5-25.4,25.4-37.5l-49.5-49.5C74,268.3,60.3,276.4,48.6,281.8L48.6,281.8z"/>
<path class="st8" d="M84.9,257.2l49.8,49.8c2.6,2.6,6.7,2.6,9.4,0.2c4.7-4.3,9.9-8.4,15.7-12c3.7-2.3,4.3-7.5,1.2-10.6l-53.8-53.8
	c-3.1-3.1-8.3-2.5-10.6,1.2c-3.6,5.8-7.6,11-12,15.7C82.2,250.5,82.3,254.6,84.9,257.2L84.9,257.2z"/>
<path class="st9" d="M9.6,188.4c12.6,14.2,30.5,21.7,47.3,21.7c33.5,0,157.3-98.5,168-133.5c6.8-22.4-4.7-47.6-13.9-62.7
	C114.5,27.3,36.1,96.8,9.6,188.4L9.6,188.4z"/>
<path class="st9" d="M484.9,306.5c-17.9-8.1-42.9-12-69.4,7C367.9,347.8,236.4,464.2,265,500.7C374.2,491.8,463.1,411.5,484.9,306.5
	L484.9,306.5z"/>
<path class="st4" d="M437.8,214.2l-26.6-15.4c-3.2-1.8-5.1-5.2-5.1-8.8v-30.7c0-3.6,1.9-7,5.1-8.8l54.9-31.7c4-2.3,3.6-8.2-0.7-10
	c-27.5-11.3-60.4-5.8-82.7,16.5c-30.6,30.6-29.7,81,3,110.3c11.4,10.3,25.3,16.5,39.6,18.6C410.3,226.8,437.8,214.2,437.8,214.2
	L437.8,214.2z"/>
<path class="st8" d="M100.6,336.9c-24.2,0-43.8-19.6-43.8-43.8c0-6.1,1.3-12,3.5-17.3c-4,2.3-8,4.3-11.7,6
	c-15.8,7.2-30.1,17.1-42.5,29.1c2.2,9.5,4.9,18.8,8.1,27.8c4.2-2.1,8.9-4,13.8-5.4c18.8-5.5,36.2,11.9,30.7,30.7
	c-2.1,7.3-5.4,14.2-8.5,19.7c-3.1,5.5-4.2,10.7-4.4,15.3c2.6,3.6,5.3,7.2,8.1,10.6l14-11.5c18.1-14.9,32.7-33.5,42.4-54.8
	c1.3-2.8,2.8-5.8,4.4-8.8C110.2,336,105.5,336.9,100.6,336.9z"/>
<path class="st6" d="M27.5,331.9c-4.5,1.3-9.1,3.1-13.8,5.4c8,22.9,19.3,44.3,33.4,63.5c-0.2-12.7,8.3-20.3,13-36.4
	C65.9,344.5,47.4,326,27.5,331.9z"/>
<path class="st10" d="M96.7,232.1c-3.6,5.8-7.6,11-12,15.7c-2.5,2.7-2.4,6.8,0.2,9.4l23.6,23.6c-3.1-26.7,25.5-23.2,25.5-23.2
	l-26.7-26.7C104.1,227.8,98.9,228.4,96.7,232.1z"/>
</svg>
