<svg xmlns="http://www.w3.org/2000/svg" xmlns:xlink="http://www.w3.org/1999/xlink" viewBox="0 0 253.17 71.73"><defs><style>.cls-1{fill:url(#linear-gradient);}.cls-2{fill:url(#linear-gradient-2);}.cls-3{fill:url(#linear-gradient-3);}.cls-4{fill:url(#linear-gradient-4);}.cls-5{fill:url(#linear-gradient-5);}.cls-6{fill:url(#linear-gradient-6);}.cls-7{fill:url(#linear-gradient-7);}.cls-8{fill:url(#linear-gradient-8);}.cls-9{fill:#fff;}.cls-10{fill:url(#linear-gradient-9);}.cls-11{fill:url(#linear-gradient-10);}.cls-12{fill:url(#linear-gradient-11);}.cls-13{fill:url(#linear-gradient-12);}.cls-14{fill:url(#linear-gradient-13);}</style><linearGradient id="linear-gradient" x1="199.17" y1="31.12" x2="253.17" y2="31.12" gradientTransform="translate(0.32 -2.22) rotate(0.56)" gradientUnits="userSpaceOnUse"><stop offset="0" stop-color="#006e9e"/><stop offset="1" stop-color="#00314f"/></linearGradient><linearGradient id="linear-gradient-2" x1="201.25" y1="52.98" x2="247.37" y2="52.98" gradientTransform="translate(0.32 -2.22) rotate(0.56)" gradientUnits="userSpaceOnUse"><stop offset="0" stop-color="#00bcf1"/><stop offset="1" stop-color="#0083b5"/></linearGradient><linearGradient id="linear-gradient-3" x1="201.25" y1="35.39" x2="247.37" y2="35.39" xlink:href="#linear-gradient-2"/><linearGradient id="linear-gradient-4" x1="201.25" y1="36.63" x2="247.37" y2="36.63" xlink:href="#linear-gradient-2"/><linearGradient id="linear-gradient-5" x1="201.25" y1="20.1" x2="247.37" y2="20.1" xlink:href="#linear-gradient-2"/><linearGradient id="linear-gradient-6" x1="201.25" y1="37.82" x2="247.37" y2="37.82" xlink:href="#linear-gradient-2"/><linearGradient id="linear-gradient-7" x1="201.25" y1="29.64" x2="247.37" y2="29.64" xlink:href="#linear-gradient-2"/><linearGradient id="linear-gradient-8" x1="201.25" y1="14.33" x2="247.37" y2="14.33" xlink:href="#linear-gradient-2"/><linearGradient id="linear-gradient-9" x1="201.25" y1="30.57" x2="247.37" y2="30.57" xlink:href="#linear-gradient-2"/><linearGradient id="linear-gradient-10" x1="201.25" y1="26.15" x2="247.37" y2="26.15" xlink:href="#linear-gradient-2"/><linearGradient id="linear-gradient-11" x1="201.25" y1="35" x2="247.37" y2="35" xlink:href="#linear-gradient-2"/><linearGradient id="linear-gradient-12" x1="201.25" y1="28.74" x2="247.37" y2="28.74" xlink:href="#linear-gradient-2"/><linearGradient id="linear-gradient-13" x1="61.08" y1="22.76" x2="69.42" y2="22.76" gradientTransform="matrix(1, 0, 0, 1, 0, 0)" xlink:href="#linear-gradient-2"/></defs><g id="Layer_2" data-name="Layer 2"><g id="Layer_1-2" data-name="Layer 1"><polygon class="cls-1" points="199.47 0 198.87 61.72 253.17 31.39 199.47 0"/><polygon class="cls-2" points="207.77 50.51 207.74 54.01 206.94 54.46 206.96 51.88 201.33 55.02 201.34 54.09 207.77 50.51"/><polygon class="cls-3" points="229.66 20.43 229.57 30.44 211.47 40.55 211.43 44.99 201.38 50.6 201.38 49.67 210.63 44.52 210.68 40.08 228.77 29.97 228.87 19.96 229.66 20.43"/><polygon class="cls-4" points="234.52 23.27 233.23 24 233.14 32.86 215.05 42.97 214.98 49.97 214.17 50.42 214.25 42.49 232.35 32.39 232.43 23.53 233.73 22.8 234.52 23.27"/><polygon class="cls-5" points="226.09 18.34 225.99 28.04 217.95 32.52 218.08 19.24 207.22 25.3 207.4 7.41 208.19 7.88 208.03 23.93 218.89 17.87 218.76 31.16 225.19 27.57 225.29 17.87 226.09 18.34"/><polygon class="cls-6" points="242.24 27.77 240.38 28.81 240.34 33.23 218.62 45.36 218.6 47.95 217.79 48.4 217.83 44.89 239.54 32.76 239.58 28.34 241.43 27.31 242.24 27.77"/><polygon class="cls-7" points="207.99 28.36 207.85 42.57 201.42 46.16 201.43 45.24 207.06 42.1 207.18 29.73 203.56 31.75 203.73 14.04 201.72 15.16 201.73 14.24 204.55 12.67 204.37 30.39 207.99 28.36"/><polygon class="cls-8" points="219.1 14.25 210.88 18.85 210.98 9.5 211.77 9.97 211.7 17.48 218.31 13.79 219.1 14.25"/><circle class="cls-9" cx="210.99" cy="49.17" r="0.86"/><circle class="cls-9" cx="243.56" cy="30.98" r="0.86"/><circle class="cls-9" cx="204.18" cy="8.92" r="0.86"/><circle class="cls-9" cx="203.92" cy="35.5" r="0.86"/><circle class="cls-9" cx="203.88" cy="39.93" r="0.86"/><circle class="cls-9" cx="222.06" cy="20.97" r="0.86"/><circle class="cls-9" cx="222.02" cy="25.4" r="0.86"/><polygon class="cls-10" points="211.17 30.22 214.79 28.2 214.77 30.67 211.15 32.69 211.17 30.22"/><polygon class="cls-11" points="211.22 25.8 214.83 23.78 214.81 26.24 211.19 28.26 211.22 25.8"/><polygon class="cls-12" points="211.13 34.65 214.75 32.62 214.72 35.09 211.1 37.11 211.13 34.65"/><polygon class="cls-13" points="237.21 26.17 235.59 27.07 235.55 31.51 237.17 30.61 237.21 26.17"/><path d="M0,53.43v-45H10.76V44.48H38.57v9Z"/><path d="M181.17,53.43H170.4v-36H169l-15.43,36H138.26l-15.44-36H121.4v36H110.64v-45h20l14.93,36.05h.64l14.92-36h20Z"/><path d="M82.52,8.43h-12l4.32,8.44L83.42,33.6H53.22L42.71,53.43H55.28L61.12,42.1H87.76l5.78,11.33h12.64Z"/><circle class="cls-14" cx="65.25" cy="22.76" r="4.17"/><path d="M70.44,71.62H62V61.12h8.49v1h-7v3.53H70v1H63.48V70.6h7Z"/><path d="M83.58,71.62H82.07L75,63.24v8.38H73.46V61.12H75l7.06,8.39V61.12h1.53Z"/><path d="M91.8,66.94v-1h4.43v5.13a12.28,12.28,0,0,1-4.38.68c-1.91,0-3.23-.38-3.93-1.14s-1.07-2.18-1.07-4.22c.09-4.26,1-5.26,4.86-5.35a11.23,11.23,0,0,1,4.29.69v.87A11.3,11.3,0,0,0,92.42,62a4.39,4.39,0,0,0-3.2.91c-.57.6-.85,1.74-.85,3.42a5.82,5.82,0,0,0,.72,3.42,3.28,3.28,0,0,0,2.7.92,8.94,8.94,0,0,0,3-.45V66.94Z"/><path d="M101.16,61.12v10.5H99.63V61.12Z"/><path d="M114.71,71.62h-1.52l-7.08-8.38v8.38h-1.53V61.12h1.53l7.07,8.39V61.12h1.53Z"/><path d="M126.66,71.62h-8.49V61.12h8.49v1h-7v3.53h6.51v1H119.7V70.6h7Z"/><path d="M138.17,71.62h-8.49V61.12h8.49v1h-7v3.53h6.51v1h-6.51V70.6h7Z"/><path d="M148.89,71.62l-3.51-4.32c-.2,0-.5,0-.92,0h-1.74v4.3H141.2V61.12h3.26a10.08,10.08,0,0,1,4.4.65A2.53,2.53,0,0,1,150,64.23c0,1.86-.85,2.7-3.19,3l3.76,4.41Zm-1.22-9a7.92,7.92,0,0,0-3.21-.44h-1.74V66.3h1.74a7.93,7.93,0,0,0,3.2-.44,2,2,0,0,0,0-3.28Z"/><path d="M155,61.12v10.5h-1.53V61.12Z"/><path d="M168.52,71.62H167l-7.08-8.38v8.38H158.4V61.12h1.52L167,69.51V61.12h1.53Z"/><path d="M176.74,66.94v-1h4.42v5.13a12.25,12.25,0,0,1-4.38.68c-1.9,0-3.22-.38-3.93-1.14s-1.06-2.18-1.06-4.22c.09-4.26,1-5.26,4.86-5.35a11.3,11.3,0,0,1,4.29.69v.87a11.32,11.32,0,0,0-3.59-.54,4.36,4.36,0,0,0-3.19.91c-.57.6-.86,1.74-.86,3.42a5.82,5.82,0,0,0,.72,3.42,3.31,3.31,0,0,0,2.7.92,9,9,0,0,0,3-.45V66.94Z"/></g></g></svg>